<svg width="150" height="120" viewBox="0 0 150 120" fill="none" xmlns="http://www.w3.org/2000/svg">
<path fill-rule="evenodd" clip-rule="evenodd" d="M77.621 60.7811C78.1315 61.5063 78.1786 62.392 77.8237 63.1025C77.818 63.1152 77.8122 63.1278 77.8062 63.1404C77.2512 64.3189 75.8544 64.8244 74.6862 64.2696C70.5108 62.2866 67.9223 61.4419 66.0049 61.3898C64.3355 61.3445 62.9821 61.8981 61.2228 63.5525C60.4564 64.2732 59.3397 64.3787 58.4748 63.8888C57.9834 63.6702 57.5745 63.2838 57.3459 62.7644C56.0711 59.8686 56.709 56.8049 58.2267 53.5805C59.6808 50.4912 62.1428 46.8365 65.2848 42.4038C65.5179 41.7008 66.1043 41.1352 66.9034 40.9464C67.1245 40.8942 67.3474 40.8743 67.5665 40.8836C68.0434 40.8638 68.5249 40.9814 68.9439 41.2503C69.5595 41.6456 69.9067 42.2821 69.9489 42.9551C72.5047 51.628 74.014 55.6576 77.621 60.7811ZM66.1477 56.6748C64.5053 56.6302 63.0535 56.9385 61.71 57.5463C61.8898 56.9061 62.167 56.1791 62.5608 55.3424C63.4523 53.4483 64.8347 51.2155 66.7043 48.4679C67.8105 51.9483 68.8505 54.7364 70.1606 57.3703C68.733 56.9518 67.4062 56.709 66.1477 56.6748Z" fill="url(#paint0_linear_179_11)"/>
<path fill-rule="evenodd" clip-rule="evenodd" d="M113.745 93.3523C114.401 93.984 114.791 94.7909 114.911 95.6305C115.225 96.7083 115.081 97.9135 114.414 98.9213C113.219 100.728 110.796 101.216 109.002 100.012C90.3133 87.4616 77.8398 81.6411 68.0629 81.3844C58.8655 81.1431 51.1895 85.8711 42.0467 97.668C40.7363 99.3589 38.3264 99.6761 36.6303 98.3948C35.7798 97.8868 35.1193 97.055 34.8473 96.0159C31.8293 84.4858 34.6656 71.9899 41.1407 57.1824C47.5583 42.5062 57.8972 24.8227 70.8781 2.62034L71.1963 2.07602C71.6868 1.15625 72.5337 0.44432 73.5767 0.14947C74.5663 -0.132796 75.6644 -0.022918 76.6207 0.544335C77.7615 1.22105 78.4351 2.39125 78.5315 3.62691C81.8694 29.8297 85.6157 47.3262 91.0203 60.7225C96.3827 74.0141 103.446 83.4351 113.745 93.3523ZM68.2662 73.5254C57.8448 73.2519 49.4506 77.8406 41.445 86.3015C41.4597 79.1002 43.7365 70.7496 48.2834 60.3514C53.6093 48.1719 61.7948 33.7251 72.2995 15.6928C75.3163 36.2771 78.8426 51.4204 83.7896 63.6823C86.4315 70.2308 89.464 75.9222 92.9968 81.1605C83.6977 76.3658 75.6378 73.7188 68.2662 73.5254Z" fill="url(#paint1_linear_179_11)"/>
<path fill-rule="evenodd" clip-rule="evenodd" d="M118.443 58.9228C120.172 56.4233 124.066 57.6124 124.126 60.6581L124.263 67.624L130.882 69.6453C133.776 70.5291 133.857 74.6271 131 75.6257L129.64 76.101C135.099 78.9414 139.397 81.7014 142.594 84.4008C146.116 87.3753 148.639 90.5587 149.59 94.0184C150.613 97.7427 149.655 101.18 147.45 103.997C145.372 106.65 142.221 108.744 138.645 110.439C131.457 113.844 121.188 116.264 109.728 117.82C98.1927 119.385 85.1599 120.111 72.2732 119.986C59.3902 119.862 46.5682 118.886 35.4615 117.016C24.4706 115.166 14.7376 112.374 8.34237 108.376C5.13354 106.371 2.38249 103.826 0.973577 100.567C-0.517789 97.1166 -0.264488 93.4296 1.51896 89.8476C3.22857 86.414 6.33047 83.0672 10.6113 79.7436C14.9301 76.3905 20.6803 72.8842 27.9932 69.2049C29.9213 68.2348 32.2651 69.0228 33.2282 70.9649C34.1913 72.9071 33.409 75.268 31.4808 76.238C24.44 79.7805 19.1642 83.0293 15.3761 85.9703C11.5499 88.941 9.46383 91.4275 8.49566 93.372C7.60133 95.1683 7.68707 96.4043 8.12957 97.4279C8.65452 98.6423 9.93877 100.122 12.4579 101.696C17.5186 104.86 26.0121 107.455 36.7481 109.262C47.3684 111.05 59.7737 112.003 72.3482 112.125C84.919 112.247 97.5739 111.536 108.686 110.028C119.874 108.51 129.212 106.22 135.322 103.325C138.395 101.869 140.314 100.415 141.321 99.1283C142.201 98.0044 142.341 97.1099 142.068 96.1158C141.722 94.8572 140.553 92.9361 137.58 90.4256C134.713 88.005 130.472 85.2913 124.552 82.3159L124.602 84.8755C124.662 87.9212 120.818 89.2648 118.992 86.8362L114.816 81.2818L108.281 83.5657C105.424 84.5643 102.968 81.2967 104.696 78.7971L108.65 73.0805L104.475 67.5261C102.649 65.0975 104.975 61.7344 107.869 62.6182L114.489 64.6395L118.443 58.9228ZM119.539 65.5898L117.683 68.2732C116.91 69.3911 115.51 69.8803 114.216 69.4851L111.108 68.5363L113.068 71.1435C113.885 72.2296 113.914 73.7218 113.141 74.8396L111.285 77.523L114.353 76.451C115.63 76.0044 117.048 76.4374 117.865 77.5235L119.825 80.1307L119.761 76.8609C119.734 75.4988 120.581 74.2742 121.859 73.8276L124.926 72.7556L121.819 71.8068C120.524 71.4115 119.63 70.2217 119.603 68.8596L119.539 65.5898Z" fill="url(#paint2_linear_179_11)"/>
<defs>
<linearGradient id="paint0_linear_179_11" x1="87.4158" y1="14.7408" x2="-33.8471" y2="209.121" gradientUnits="userSpaceOnUse">
<stop stop-color="#7339AB"/>
<stop offset="1" stop-color="#A951FF"/>
</linearGradient>
<linearGradient id="paint1_linear_179_11" x1="87.4158" y1="14.7408" x2="-33.8471" y2="209.121" gradientUnits="userSpaceOnUse">
<stop stop-color="#7339AB"/>
<stop offset="1" stop-color="#A951FF"/>
</linearGradient>
<linearGradient id="paint2_linear_179_11" x1="87.4158" y1="14.7408" x2="-33.8471" y2="209.121" gradientUnits="userSpaceOnUse">
<stop stop-color="#7339AB"/>
<stop offset="1" stop-color="#A951FF"/>
</linearGradient>
</defs>
</svg>
