<svg width="150" height="196" viewBox="0 0 150 196" fill="none" xmlns="http://www.w3.org/2000/svg">
<g clip-path="url(#clip0_152_218)">
<path d="M33.2807 180.89C33.2807 180.89 44.8359 173.943 44.8449 173.939C46.498 173.001 48.5971 172.88 50.3367 173.939L61.762 180.89V164.735H33.2812V180.89H33.2807Z" fill="#28D7AD"/>
<path d="M144.589 27.8055C141.195 27.8055 138.435 25.0475 138.435 21.6579V16.958C138.435 13.5685 141.195 10.8105 144.589 10.8105C147.577 10.8105 150 8.3903 150 5.40525C150 2.4202 147.577 0 144.589 0C144.589 0 144.589 0 144.589 0H144.588H17.7463C7.96096 0 0 7.95203 0 17.7269V147.008C0 156.782 7.96049 164.735 17.7463 164.735H22.4588V190.513C22.4588 192.468 23.515 194.268 25.2198 195.225C26.0437 195.688 26.9577 195.918 27.8699 195.918C28.8461 195.918 29.8214 195.654 30.6849 195.128L47.5086 184.877L64.3577 195.128C65.2211 195.654 66.1964 195.918 67.1727 195.918C68.085 195.918 68.9989 195.688 69.8228 195.225C71.5282 194.268 72.5833 192.468 72.5833 190.513V164.735H144.588C147.576 164.735 149.999 162.315 149.999 159.33V33.2198C149.999 33.2161 150 33.2135 150 33.2107C150 30.2261 147.577 27.8055 144.589 27.8055ZM10.822 17.7269C10.822 13.9136 13.9284 10.8105 17.7463 10.8105H128.772C128.026 12.7177 127.613 14.7906 127.613 16.958V21.6579C127.613 23.8258 128.026 25.8983 128.772 27.8055H118.22H10.822V17.7269ZM61.7617 180.89L50.3364 173.939C48.5972 172.88 46.4977 173.001 44.8446 173.939C44.8356 173.943 33.2804 180.89 33.2804 180.89V164.735H61.7613V180.89H61.7617ZM139.177 153.925H17.7463C13.9284 153.925 10.8225 150.822 10.8225 147.008V45.5329V38.6161H118.22H139.177V153.925H139.177Z" fill="#231F20"/>
<path d="M98.2 66.1184L105.141 73.0522L114.859 63.3448L107.918 56.411L98.2 66.1184Z" fill="#D1D5D8"/>
<path d="M52.3881 113.27L57.9411 118.817L66.9647 109.803L61.4116 104.256L52.3881 113.27Z" fill="#29F1C1"/>
<path d="M55.8588 98.7096L72.5176 115.351L110 77.9081L93.3412 61.2671L55.8588 98.7096Z" fill="#EFEFEF"/>
<path d="M121.106 66.8129L104.447 50.1712C103.681 49.4055 102.437 49.4053 101.671 50.1712C100.904 50.937 100.904 52.1789 101.671 52.9449L105.141 56.4118L98.1997 63.3457L89.4537 54.609C88.6869 53.8434 87.4442 53.8434 86.677 54.609C85.9104 55.3749 85.9104 56.6168 86.677 57.3826L90.5642 61.2657L54.4695 97.3223C54.1013 97.6899 53.8943 98.1888 53.8943 98.7089C53.8943 99.229 54.1013 99.728 54.4695 100.096L58.6341 104.256L50.9986 111.883C50.232 112.649 50.232 113.891 50.9986 114.657L52.3869 116.044L34.7577 133.654C33.9911 134.42 33.9911 135.662 34.7577 136.428C35.1411 136.811 35.6435 137.002 36.146 137.002C36.6483 137.002 37.1509 136.811 37.5341 136.428L55.1633 118.817L56.5516 120.204C56.9349 120.587 57.4374 120.778 57.9397 120.778C58.4422 120.778 58.9448 120.587 59.328 120.204L66.9635 112.577L71.1283 116.737C71.5116 117.12 72.0141 117.311 72.5165 117.311C73.019 117.311 73.5215 117.12 73.9048 116.737L110 80.6805L113.887 84.5635C114.27 84.9466 114.773 85.1379 115.275 85.1379C115.778 85.1379 116.28 84.9463 116.663 84.5635C117.43 83.7977 117.43 82.5558 116.663 81.7899L107.917 73.0533L114.858 66.1195L118.329 69.5864C118.713 69.9694 119.215 70.1608 119.717 70.1608C120.22 70.1608 120.722 69.9692 121.106 69.5864C121.873 68.8206 121.873 67.5787 121.106 66.8129ZM64.1875 109.803L57.9403 116.044L55.1638 113.27L61.411 107.03L64.1875 109.803ZM103.753 81.374L98.8476 76.4741C98.0807 75.7083 96.8378 75.7083 96.0709 76.4741C95.3042 77.24 95.3042 78.4817 96.0709 79.2476L100.976 84.1474L97.5056 87.6143L92.6005 82.7144C91.8337 81.9486 90.5909 81.9486 89.8238 82.7144C89.0571 83.4803 89.0571 84.7221 89.8238 85.488L94.7289 90.3879L91.2585 93.8548L86.3531 88.955C85.5863 88.1891 84.3436 88.1891 83.5764 88.955C82.8098 89.7208 82.8098 90.9627 83.5764 91.7285L88.4818 96.6284L85.0113 100.095L80.1062 95.1952C79.3394 94.4295 78.0965 94.4295 77.3295 95.1952C76.5628 95.9611 76.5628 97.203 77.3295 97.9688L82.2348 102.869L78.7642 106.336L73.8591 101.436C73.0925 100.67 71.8494 100.67 71.0824 101.436C70.3158 102.202 70.3158 103.444 71.0824 104.21L75.9877 109.11L72.5172 112.576L58.6343 98.7086L93.3409 64.0391L107.224 77.907L103.753 81.374ZM105.141 70.2797L100.977 66.1195L107.917 59.1857L112.082 63.3459L105.141 70.2797Z" fill="#231F20"/>
<path d="M29.0151 139.391L28.8188 139.587C28.0522 140.353 28.0522 141.594 28.8188 142.361C29.2023 142.743 29.7048 142.935 30.2071 142.935C30.7096 142.935 31.2122 142.743 31.5954 142.361L31.7918 142.164C32.5585 141.398 32.5585 140.157 31.7918 139.391C31.025 138.625 29.7818 138.625 29.0151 139.391Z" fill="#231F20"/>
</g>
<defs>
<clipPath id="clip0_152_218">
<rect width="150" height="195.933" fill="white"/>
</clipPath>
</defs>
</svg>
