<svg width="250" height="333" viewBox="0 0 250 333" fill="none" xmlns="http://www.w3.org/2000/svg">
<g clip-path="url(#clip0_140_128)">
<g filter="url(#filter0_d_140_128)">
<path d="M2.78491 30.8654C3.07362 7.68424 27.9083 -6.83954 48.2037 4.3035L206.38 91.1487C216.325 96.6084 222.451 107.119 222.31 118.477L220.059 299.143C219.771 322.324 194.936 336.849 174.64 325.705L16.4639 238.86C6.51938 233.4 0.393284 222.89 0.534747 211.531L2.78491 30.8654Z" fill="#DEDCDC"/>
</g>
<g filter="url(#filter1_d_140_128)">
<path d="M127.508 112.433L102.689 216.741H100.331L76.6898 117.155L52.9787 216.741H50.6219L25.8011 112.433L28.089 111.878L51.7999 211.741L75.511 112.156H77.8678L101.509 211.741L125.221 111.878L127.508 112.433Z" fill="black"/>
</g>
<g filter="url(#filter2_d_140_128)">
<path d="M246.754 212.529L221.98 252.777C216.393 251.789 211.216 250.925 206.451 250.185C201.767 249.444 197.124 248.744 192.523 248.085C188.004 247.509 183.361 246.892 178.595 246.234C173.83 245.576 168.694 244.793 163.189 243.888C161.052 243.476 158.916 243.188 156.78 243.023C154.725 242.777 152.63 242.653 150.494 242.653C145.975 242.653 141.62 243.271 137.429 244.505C133.32 245.74 129.376 247.674 125.597 250.308L121.775 246.234C123.501 244.752 124.98 242.982 126.213 240.925C127.445 238.867 128.473 236.686 129.294 234.382C130.198 231.995 130.856 229.608 131.266 227.221C131.677 224.834 131.882 222.57 131.882 220.431V147.59C131.882 136.067 133.895 125.326 137.921 115.367C141.948 105.408 147.494 96.7663 154.561 89.4408C161.71 82.0329 170.091 76.2308 179.705 72.0331C189.4 67.7535 199.878 65.613 211.134 65.613C214.75 65.613 218.242 66.0247 221.61 66.8473C224.98 67.6711 227.938 68.9877 230.485 70.7981C233.114 72.6092 235.21 74.9551 236.771 77.8357C238.333 80.7158 239.113 84.2558 239.113 88.4534C239.113 92.1574 238.414 95.7375 237.018 99.1937C235.621 102.651 233.69 105.944 231.225 109.071C228.841 112.199 226.048 115.12 222.844 117.836C219.721 120.471 216.434 122.857 212.983 124.997C209.532 127.137 205.999 128.948 202.383 130.429C198.768 131.911 195.358 133.063 192.153 133.886L190.181 129.194C192.975 127.548 195.851 125.656 198.809 123.515C201.849 121.376 204.601 119.03 207.067 116.478C209.532 113.845 211.545 111.005 213.106 107.96C214.668 104.832 215.448 101.457 215.448 97.8357C215.448 94.9551 214.914 92.3214 213.846 89.9345C212.777 87.4656 211.299 85.3666 209.409 83.6378C207.601 81.9099 205.465 80.5518 203 79.564C200.616 78.5766 198.028 78.0821 195.235 78.0821C189.072 78.0821 183.649 79.3992 178.965 82.0329C174.281 84.6666 170.337 88.1241 167.133 92.4038C163.928 96.6839 161.504 101.54 159.86 106.972C158.217 112.404 157.396 117.918 157.396 123.515V203.023C157.396 206.15 156.944 209.196 156.04 212.159C155.136 215.04 153.903 217.838 152.342 220.555C150.864 223.188 149.097 225.698 147.042 228.086C144.989 230.472 142.811 232.653 140.51 234.629C143.139 232.736 145.686 231.007 148.152 229.444C150.617 227.797 153.123 226.398 155.67 225.245C158.3 224.093 161.011 223.229 163.805 222.653C166.599 221.994 169.68 221.665 173.049 221.665C177.158 221.665 180.814 221.871 184.019 222.282C187.223 222.694 190.346 223.147 193.385 223.64C196.508 224.052 199.671 224.464 202.876 224.875C206.081 225.287 209.738 225.493 213.846 225.493C216.721 225.493 219.475 225.081 222.104 224.258C224.816 223.352 227.363 222.159 229.746 220.677C232.128 219.196 234.347 217.509 236.401 215.616C238.538 213.641 240.468 211.542 242.194 209.32L246.754 212.529Z" fill="#535353"/>
</g>
</g>
<defs>
<filter id="filter0_d_140_128" x="-0.467651" y="-0.520752" width="229.78" height="337.05" filterUnits="userSpaceOnUse" color-interpolation-filters="sRGB">
<feFlood flood-opacity="0" result="BackgroundImageFix"/>
<feColorMatrix in="SourceAlpha" type="matrix" values="0 0 0 0 0 0 0 0 0 0 0 0 0 0 0 0 0 0 127 0" result="hardAlpha"/>
<feOffset dx="3" dy="3"/>
<feGaussianBlur stdDeviation="2"/>
<feColorMatrix type="matrix" values="0 0 0 0 1 0 0 0 0 1 0 0 0 0 1 0 0 0 0.25 0"/>
<feBlend mode="normal" in2="BackgroundImageFix" result="effect1_dropShadow_140_128"/>
<feBlend mode="normal" in="SourceGraphic" in2="effect1_dropShadow_140_128" result="shape"/>
</filter>
<filter id="filter1_d_140_128" x="24.8011" y="110.878" width="109.707" height="112.863" filterUnits="userSpaceOnUse" color-interpolation-filters="sRGB">
<feFlood flood-opacity="0" result="BackgroundImageFix"/>
<feColorMatrix in="SourceAlpha" type="matrix" values="0 0 0 0 0 0 0 0 0 0 0 0 0 0 0 0 0 0 127 0" result="hardAlpha"/>
<feOffset dx="3" dy="3"/>
<feGaussianBlur stdDeviation="2"/>
<feColorMatrix type="matrix" values="0 0 0 0 1 0 0 0 0 1 0 0 0 0 1 0 0 0 0.25 0"/>
<feBlend mode="normal" in2="BackgroundImageFix" result="effect1_dropShadow_140_128"/>
<feBlend mode="normal" in="SourceGraphic" in2="effect1_dropShadow_140_128" result="shape"/>
</filter>
<filter id="filter2_d_140_128" x="120.775" y="64.613" width="132.979" height="195.164" filterUnits="userSpaceOnUse" color-interpolation-filters="sRGB">
<feFlood flood-opacity="0" result="BackgroundImageFix"/>
<feColorMatrix in="SourceAlpha" type="matrix" values="0 0 0 0 0 0 0 0 0 0 0 0 0 0 0 0 0 0 127 0" result="hardAlpha"/>
<feOffset dx="3" dy="3"/>
<feGaussianBlur stdDeviation="2"/>
<feColorMatrix type="matrix" values="0 0 0 0 1 0 0 0 0 1 0 0 0 0 1 0 0 0 0.25 0"/>
<feBlend mode="normal" in2="BackgroundImageFix" result="effect1_dropShadow_140_128"/>
<feBlend mode="normal" in="SourceGraphic" in2="effect1_dropShadow_140_128" result="shape"/>
</filter>
<clipPath id="clip0_140_128">
<rect width="250" height="332.547" fill="white"/>
</clipPath>
</defs>
</svg>
